<?xml version="1.0" encoding="UTF-8" standalone="no"?>
<!DOCTYPE svg PUBLIC "-//W3C//DTD SVG 1.1//EN"
 "http://www.w3.org/Graphics/SVG/1.1/DTD/svg11.dtd">
<!-- Generated by graphviz version 2.36.0 (20140111.2315)
 -->
<!-- Title: G Pages: 1 -->
<svg width="214pt" height="1230pt"
 viewBox="0.00 0.00 214.00 1230.00" xmlns="http://www.w3.org/2000/svg" xmlns:xlink="http://www.w3.org/1999/xlink">
<g id="graph0" class="graph" transform="scale(1 1) rotate(0) translate(4 1226)">
<title>G</title>
<polygon fill="white" stroke="none" points="-4,4 -4,-1226 210,-1226 210,4 -4,4"/>
<!-- 140095473515472 -->
<g id="node1" class="node"><title>140095473515472</title>
<polygon fill="none" stroke="black" points="17,-1185 17,-1221 189,-1221 189,-1185 17,-1185"/>
<text text-anchor="middle" x="103" y="-1199.3" font-family="Times,serif" font-size="14.00">conv2d_1_input: InputLayer</text>
</g>
<!-- 140095473515408 -->
<g id="node2" class="node"><title>140095473515408</title>
<polygon fill="none" stroke="black" points="41.5,-1111 41.5,-1147 164.5,-1147 164.5,-1111 41.5,-1111"/>
<text text-anchor="middle" x="103" y="-1125.3" font-family="Times,serif" font-size="14.00">conv2d_1: Conv2D</text>
</g>
<!-- 140095473515472&#45;&gt;140095473515408 -->
<g id="edge1" class="edge"><title>140095473515472&#45;&gt;140095473515408</title>
<path fill="none" stroke="black" d="M103,-1184.94C103,-1176.81 103,-1166.88 103,-1157.7"/>
<polygon fill="black" stroke="black" points="106.5,-1157.44 103,-1147.44 99.5001,-1157.44 106.5,-1157.44"/>
</g>
<!-- 140095460864080 -->
<g id="node3" class="node"><title>140095460864080</title>
<polygon fill="none" stroke="black" points="29,-1037 29,-1073 177,-1073 177,-1037 29,-1037"/>
<text text-anchor="middle" x="103" y="-1051.3" font-family="Times,serif" font-size="14.00">activation_1: Activation</text>
</g>
<!-- 140095473515408&#45;&gt;140095460864080 -->
<g id="edge2" class="edge"><title>140095473515408&#45;&gt;140095460864080</title>
<path fill="none" stroke="black" d="M103,-1110.94C103,-1102.81 103,-1092.88 103,-1083.7"/>
<polygon fill="black" stroke="black" points="106.5,-1083.44 103,-1073.44 99.5001,-1083.44 106.5,-1083.44"/>
</g>
<!-- 140095454154320 -->
<g id="node4" class="node"><title>140095454154320</title>
<polygon fill="none" stroke="black" points="-0.5,-963 -0.5,-999 206.5,-999 206.5,-963 -0.5,-963"/>
<text text-anchor="middle" x="103" y="-977.3" font-family="Times,serif" font-size="14.00">max_pooling2d_1: MaxPooling2D</text>
</g>
<!-- 140095460864080&#45;&gt;140095454154320 -->
<g id="edge3" class="edge"><title>140095460864080&#45;&gt;140095454154320</title>
<path fill="none" stroke="black" d="M103,-1036.94C103,-1028.81 103,-1018.88 103,-1009.7"/>
<polygon fill="black" stroke="black" points="106.5,-1009.44 103,-999.441 99.5001,-1009.44 106.5,-1009.44"/>
</g>
<!-- 140095446410576 -->
<g id="node5" class="node"><title>140095446410576</title>
<polygon fill="none" stroke="black" points="41.5,-889 41.5,-925 164.5,-925 164.5,-889 41.5,-889"/>
<text text-anchor="middle" x="103" y="-903.3" font-family="Times,serif" font-size="14.00">conv2d_2: Conv2D</text>
</g>
<!-- 140095454154320&#45;&gt;140095446410576 -->
<g id="edge4" class="edge"><title>140095454154320&#45;&gt;140095446410576</title>
<path fill="none" stroke="black" d="M103,-962.937C103,-954.807 103,-944.876 103,-935.705"/>
<polygon fill="black" stroke="black" points="106.5,-935.441 103,-925.441 99.5001,-935.441 106.5,-935.441"/>
</g>
<!-- 140095445865360 -->
<g id="node6" class="node"><title>140095445865360</title>
<polygon fill="none" stroke="black" points="29,-815 29,-851 177,-851 177,-815 29,-815"/>
<text text-anchor="middle" x="103" y="-829.3" font-family="Times,serif" font-size="14.00">activation_2: Activation</text>
</g>
<!-- 140095446410576&#45;&gt;140095445865360 -->
<g id="edge5" class="edge"><title>140095446410576&#45;&gt;140095445865360</title>
<path fill="none" stroke="black" d="M103,-888.937C103,-880.807 103,-870.876 103,-861.705"/>
<polygon fill="black" stroke="black" points="106.5,-861.441 103,-851.441 99.5001,-861.441 106.5,-861.441"/>
</g>
<!-- 140095445885392 -->
<g id="node7" class="node"><title>140095445885392</title>
<polygon fill="none" stroke="black" points="-0.5,-741 -0.5,-777 206.5,-777 206.5,-741 -0.5,-741"/>
<text text-anchor="middle" x="103" y="-755.3" font-family="Times,serif" font-size="14.00">max_pooling2d_2: MaxPooling2D</text>
</g>
<!-- 140095445865360&#45;&gt;140095445885392 -->
<g id="edge6" class="edge"><title>140095445865360&#45;&gt;140095445885392</title>
<path fill="none" stroke="black" d="M103,-814.937C103,-806.807 103,-796.876 103,-787.705"/>
<polygon fill="black" stroke="black" points="106.5,-787.441 103,-777.441 99.5001,-787.441 106.5,-787.441"/>
</g>
<!-- 140095445886736 -->
<g id="node8" class="node"><title>140095445886736</title>
<polygon fill="none" stroke="black" points="41.5,-667 41.5,-703 164.5,-703 164.5,-667 41.5,-667"/>
<text text-anchor="middle" x="103" y="-681.3" font-family="Times,serif" font-size="14.00">conv2d_3: Conv2D</text>
</g>
<!-- 140095445885392&#45;&gt;140095445886736 -->
<g id="edge7" class="edge"><title>140095445885392&#45;&gt;140095445886736</title>
<path fill="none" stroke="black" d="M103,-740.937C103,-732.807 103,-722.876 103,-713.705"/>
<polygon fill="black" stroke="black" points="106.5,-713.441 103,-703.441 99.5001,-713.441 106.5,-713.441"/>
</g>
<!-- 140095445800272 -->
<g id="node9" class="node"><title>140095445800272</title>
<polygon fill="none" stroke="black" points="29,-593 29,-629 177,-629 177,-593 29,-593"/>
<text text-anchor="middle" x="103" y="-607.3" font-family="Times,serif" font-size="14.00">activation_3: Activation</text>
</g>
<!-- 140095445886736&#45;&gt;140095445800272 -->
<g id="edge8" class="edge"><title>140095445886736&#45;&gt;140095445800272</title>
<path fill="none" stroke="black" d="M103,-666.937C103,-658.807 103,-648.876 103,-639.705"/>
<polygon fill="black" stroke="black" points="106.5,-639.441 103,-629.441 99.5001,-639.441 106.5,-639.441"/>
</g>
<!-- 140095445308304 -->
<g id="node10" class="node"><title>140095445308304</title>
<polygon fill="none" stroke="black" points="-0.5,-519 -0.5,-555 206.5,-555 206.5,-519 -0.5,-519"/>
<text text-anchor="middle" x="103" y="-533.3" font-family="Times,serif" font-size="14.00">max_pooling2d_3: MaxPooling2D</text>
</g>
<!-- 140095445800272&#45;&gt;140095445308304 -->
<g id="edge9" class="edge"><title>140095445800272&#45;&gt;140095445308304</title>
<path fill="none" stroke="black" d="M103,-592.937C103,-584.807 103,-574.876 103,-565.705"/>
<polygon fill="black" stroke="black" points="106.5,-565.441 103,-555.441 99.5001,-565.441 106.5,-565.441"/>
</g>
<!-- 140095445309648 -->
<g id="node11" class="node"><title>140095445309648</title>
<polygon fill="none" stroke="black" points="40.5,-445 40.5,-481 165.5,-481 165.5,-445 40.5,-445"/>
<text text-anchor="middle" x="103" y="-459.3" font-family="Times,serif" font-size="14.00">dropout_1: Dropout</text>
</g>
<!-- 140095445308304&#45;&gt;140095445309648 -->
<g id="edge10" class="edge"><title>140095445308304&#45;&gt;140095445309648</title>
<path fill="none" stroke="black" d="M103,-518.937C103,-510.807 103,-500.876 103,-491.705"/>
<polygon fill="black" stroke="black" points="106.5,-491.441 103,-481.441 99.5001,-491.441 106.5,-491.441"/>
</g>
<!-- 140095445404304 -->
<g id="node12" class="node"><title>140095445404304</title>
<polygon fill="none" stroke="black" points="48,-371 48,-407 158,-407 158,-371 48,-371"/>
<text text-anchor="middle" x="103" y="-385.3" font-family="Times,serif" font-size="14.00">flatten_1: Flatten</text>
</g>
<!-- 140095445309648&#45;&gt;140095445404304 -->
<g id="edge11" class="edge"><title>140095445309648&#45;&gt;140095445404304</title>
<path fill="none" stroke="black" d="M103,-444.937C103,-436.807 103,-426.876 103,-417.705"/>
<polygon fill="black" stroke="black" points="106.5,-417.441 103,-407.441 99.5001,-417.441 106.5,-417.441"/>
</g>
<!-- 140095445768272 -->
<g id="node13" class="node"><title>140095445768272</title>
<polygon fill="none" stroke="black" points="52,-297 52,-333 154,-333 154,-297 52,-297"/>
<text text-anchor="middle" x="103" y="-311.3" font-family="Times,serif" font-size="14.00">dense_1: Dense</text>
</g>
<!-- 140095445404304&#45;&gt;140095445768272 -->
<g id="edge12" class="edge"><title>140095445404304&#45;&gt;140095445768272</title>
<path fill="none" stroke="black" d="M103,-370.937C103,-362.807 103,-352.876 103,-343.705"/>
<polygon fill="black" stroke="black" points="106.5,-343.441 103,-333.441 99.5001,-343.441 106.5,-343.441"/>
</g>
<!-- 140095434235792 -->
<g id="node14" class="node"><title>140095434235792</title>
<polygon fill="none" stroke="black" points="29,-223 29,-259 177,-259 177,-223 29,-223"/>
<text text-anchor="middle" x="103" y="-237.3" font-family="Times,serif" font-size="14.00">activation_4: Activation</text>
</g>
<!-- 140095445768272&#45;&gt;140095434235792 -->
<g id="edge13" class="edge"><title>140095445768272&#45;&gt;140095434235792</title>
<path fill="none" stroke="black" d="M103,-296.937C103,-288.807 103,-278.876 103,-269.705"/>
<polygon fill="black" stroke="black" points="106.5,-269.441 103,-259.441 99.5001,-269.441 106.5,-269.441"/>
</g>
<!-- 140095434280400 -->
<g id="node15" class="node"><title>140095434280400</title>
<polygon fill="none" stroke="black" points="40.5,-149 40.5,-185 165.5,-185 165.5,-149 40.5,-149"/>
<text text-anchor="middle" x="103" y="-163.3" font-family="Times,serif" font-size="14.00">dropout_2: Dropout</text>
</g>
<!-- 140095434235792&#45;&gt;140095434280400 -->
<g id="edge14" class="edge"><title>140095434235792&#45;&gt;140095434280400</title>
<path fill="none" stroke="black" d="M103,-222.937C103,-214.807 103,-204.876 103,-195.705"/>
<polygon fill="black" stroke="black" points="106.5,-195.441 103,-185.441 99.5001,-195.441 106.5,-195.441"/>
</g>
<!-- 140095434285456 -->
<g id="node16" class="node"><title>140095434285456</title>
<polygon fill="none" stroke="black" points="52,-75 52,-111 154,-111 154,-75 52,-75"/>
<text text-anchor="middle" x="103" y="-89.3" font-family="Times,serif" font-size="14.00">dense_2: Dense</text>
</g>
<!-- 140095434280400&#45;&gt;140095434285456 -->
<g id="edge15" class="edge"><title>140095434280400&#45;&gt;140095434285456</title>
<path fill="none" stroke="black" d="M103,-148.937C103,-140.807 103,-130.876 103,-121.705"/>
<polygon fill="black" stroke="black" points="106.5,-121.441 103,-111.441 99.5001,-121.441 106.5,-121.441"/>
</g>
<!-- 140095434355408 -->
<g id="node17" class="node"><title>140095434355408</title>
<polygon fill="none" stroke="black" points="29,-1 29,-37 177,-37 177,-1 29,-1"/>
<text text-anchor="middle" x="103" y="-15.3" font-family="Times,serif" font-size="14.00">activation_5: Activation</text>
</g>
<!-- 140095434285456&#45;&gt;140095434355408 -->
<g id="edge16" class="edge"><title>140095434285456&#45;&gt;140095434355408</title>
<path fill="none" stroke="black" d="M103,-74.937C103,-66.8072 103,-56.8761 103,-47.7047"/>
<polygon fill="black" stroke="black" points="106.5,-47.4406 103,-37.4407 99.5001,-47.4407 106.5,-47.4406"/>
</g>
</g>
</svg>
